<svg xmlns="http://www.w3.org/2000/svg" version="1.1" xmlns:xlink="http://www.w3.org/1999/xlink" xmlns:svgjs="http://svgjs.dev/svgjs" width="100%" height="100%" viewBox="0 0 1000 600"><rect width="1000" height="600" x="0" y="0" fill="#ffffff"/><g><rect width="333.3333333333333" height="333.3333333333333" rx="13.333333333333334" ry="13.333333333333334" y="249.49955100996542" fill="#65558f" transform="matrix(0.5499889268179936,0,0,0.5499889268179936,0,71.11320280360573)" x="227.2774200439453"/><path d="M316.89942582962703 350.790190662565L316.89942582962703 350.790190662565Q334.1732216740186 350.790190662565 336.95818059586946 375.678557736321L336.95818059586946 375.678557736321Q336.95818059586946 396.2308495266889 327.2989559808424 401.55399885832793L327.2989559808424 401.55399885832793L325.7830922638856 401.55399885832793Q318.41528954658384 401.06046183420244 318.41528954658384 396.2308495266889L318.41528954658384 396.2308495266889L319.4376162394152 377.1944214532778L319.4376162394152 367.81721799489384L317.9217525224584 366.0193331212939L315.38356211267023 366.0193331212939Q307.2754538591803 366.0193331212939 296.3471340392591 411.2132234733551L296.3471340392591 411.2132234733551L294.8312703223023 430.24965154676613L294.8312703223023 435.8195693904679Q294.8312703223023 462.2238001811807 318.41528954658384 466.8066439766315L318.41528954658384 466.8066439766315L329.09684085444235 466.8066439766315Q355.5010716451551 466.8066439766315 393.04513812327144 432.7878419565543L393.04513812327144 432.7878419565543L394.06746481610276 432.7878419565543Q400.9064778646986 432.7878419565543 401.92880455752993 441.4247398787501L401.92880455752993 441.4247398787501Q396.11211820176544 456.65388233747893 388.21552581575787 456.65388233747893L388.21552581575787 456.65388233747893Q351.9405545425356 482.5293234594859 322.9981333420347 482.5293234594859Q294.0557121415337 482.5293234594859 282.1403182733616 450.80194333713405L282.1403182733616 450.80194333713405L279.8488963756362 432.7878419565543L279.8488963756362 429.47409336599753Q279.8488963756362 390.13214201428127 301.9170518829609 357.1356666870354L301.9170518829609 357.1356666870354Q309.03808608819986 350.790190662565 316.89942582962703 350.790190662565ZM431.8935524508622 341.16621869211826L431.8935524508622 341.16621869211826Q440.7772188851207 341.16621869211826 440.7772188851207 372.1180406337015L440.7772188851207 372.1180406337015L442.29308260207756 411.70676049748056L442.786619626203 411.70676049748056L483.3976661828134 395.98408101462616Q489.496373695221 344.1979461260319 494.5727545147973 344.1979461260319L494.5727545147973 344.1979461260319L497.886503105354 343.70440910190644Q502.18732574416174 343.70440910190644 505.74784284678117 350.5434221505023L505.74784284678117 350.5434221505023Q496.8641764125227 394.18619614102624 496.8641764125227 426.19559742002116L496.8641764125227 426.19559742002116L496.8641764125227 437.088664595362Q496.8641764125227 460.4611679521612 508.0392647445066 481.50699676665454L508.0392647445066 481.50699676665454Q505.50107433471845 488.6280309718935 499.89590384643634 488.6280309718935L499.89590384643634 488.6280309718935Q487.7337414662014 488.6280309718935 481.88180246585654 439.3800864930874L481.88180246585654 439.3800864930874L481.88180246585654 413.50464537108047L480.36593874889974 413.50464537108047Q442.29308260207756 426.9359029562094 442.29308260207756 430.7431885708916L442.29308260207756 430.7431885708916Q442.29308260207756 491.1662213816817 431.1179942700936 491.1662213816817L431.1179942700936 491.1662213816817L430.09566757726225 491.1662213816817Q424.77251824562325 491.1662213816817 423.25665452866645 482.28255494742314L423.25665452866645 482.28255494742314Q427.06394014334865 454.60922895181625 427.06394014334865 439.3800864930874L427.06394014334865 439.3800864930874L415.88885181136476 445.2320254934323L413.5974299136393 445.72556251755776Q407.251953889169 443.43414061983236 407.251953889169 437.8642227761306Q407.251953889169 432.2590522878484 427.06394014334865 420.34365841967633L427.06394014334865 420.34365841967633L427.06394014334865 419.85012139555084Q426.28838196258005 376.1720947604465 423.75019155279193 347.5116947165887L423.75019155279193 347.5116947165887Q423.75019155279193 341.9065242283065 431.8935524508622 341.16621869211826Z " fill="#ffffff" transform="matrix(0.5499889268179936,0,0,0.5499889268179936,0,71.11320280360573)"/><path d="M670.6146945357033 383.5448351839336L670.6146945357033 383.5448351839336Q683.04913866378 383.5448351839336 685.053875574225 401.4605852949993L685.053875574225 401.4605852949993Q685.053875574225 416.25503616575185 678.1007374291372 420.0868750705265L678.1007374291372 420.0868750705265L677.0095515158571 420.0868750705265Q671.7058804489834 419.73160523829574 671.7058804489834 416.25503616575185L671.7058804489834 416.25503616575185L672.4417965300329 402.5517712082795L672.4417965300329 395.801644395895L671.3506106167526 394.50744714991146L669.523508622423 394.50744714991146Q663.6869328072033 394.50744714991146 655.8202436649507 427.04001321561435L655.8202436649507 427.04001321561435L654.7290577516706 440.7432781730867L654.7290577516706 444.75275199397674Q654.7290577516706 463.75968801832266 671.7058804489834 467.05862217475124L671.7058804489834 467.05862217475124L679.3949346751208 467.05862217475124Q698.4018706994666 467.05862217475124 725.4277543655926 442.5703801674164L725.4277543655926 442.5703801674164L726.1636704466421 442.5703801674164Q731.086695264697 442.5703801674164 731.8226113457465 448.78760223145474L731.8226113457465 448.78760223145474Q727.635502608741 459.7502141974326 721.9511852930488 459.7502141974326L721.9511852930488 459.7502141974326Q695.8388526240876 478.3765039729599 675.004814605412 478.3765039729599Q654.1707765867365 478.3765039729599 645.5935477800223 455.53772904383925L645.5935477800223 455.53772904383925L643.9440807018079 442.5703801674164L643.9440807018079 440.18499700815266Q643.9440807018079 411.8649160960431 659.8297174858408 388.1125901697577L659.8297174858408 388.1125901697577Q664.955753636599 383.5448351839336 670.6146945357033 383.5448351839336ZM776.7642451229383 369.8415702264612L776.7642451229383 369.8415702264612L781.3320001087623 368.39511448095027Q787.5492221728007 368.39511448095027 787.5492221728007 384.8390324299171L787.5492221728007 384.8390324299171L793.2081630719049 427.04001321561435L793.9440791529544 427.7759292966638L814.9557520877454 420.0868750705265Q819.1682372413388 420.0868750705265 819.5235070735696 426.4817320506803L819.5235070735696 426.4817320506803Q819.5235070735696 431.22712195261977 796.3294623122181 438.00262518159224L796.3294623122181 438.00262518159224L795.5935462311686 438.35789501382305L795.5935462311686 439.0938110948724Q795.5935462311686 442.92564999964713 807.6473441104267 479.1124200540093L807.6473441104267 479.1124200540093L807.6473441104267 479.46768988624007Q807.6473441104267 482.94425895878396 801.9884032113225 485.3296421180477L801.9884032113225 485.3296421180477Q796.6847321444488 485.3296421180477 795.0352650662346 472.71756307385556L795.0352650662346 472.71756307385556Q790.8481563292291 463.5820531022073 784.8085691813062 442.5703801674164L784.8085691813062 442.5703801674164L784.0726531002567 442.5703801674164Q760.142692257856 447.4934049854712 760.142692257856 450.96997405801517L760.142692257856 450.96997405801517Q746.9977084653176 479.46768988624007 740.2222052363452 479.46768988624007L740.2222052363452 479.46768988624007Q736.3903663315705 479.46768988624007 735.6544502505211 474.54466506818517L735.6544502505211 474.54466506818517Q735.6544502505211 470.15454499847647 745.3482413871034 457.3648310381689L745.3482413871034 457.3648310381689L748.2665292947133 450.96997405801517L743.6987743088891 450.96997405801517L740.2222052363452 451.7058901390646Q733.4720784239607 450.05642306085036 733.4720784239607 444.75275199397674L733.4720784239607 444.75275199397674Q736.2127314154552 438.35789501382305 741.5164024823287 438.35789501382305L741.5164024823287 438.35789501382305L746.0841574681529 440.18499700815266Q756.3108533530813 440.18499700815266 756.3108533530813 432.6989541147187L756.3108533530813 432.6989541147187Q765.6239982408449 410.7737301827629 776.7642451229383 369.8415702264612ZM778.4137122011525 403.11005237321353L778.4137122011525 403.11005237321353L767.6287351512899 435.6172420223285Q782.6261973547457 432.6989541147187 782.6261973547457 429.9583011232242L782.6261973547457 429.9583011232242Q779.8855443632513 403.11005237321353 778.4137122011525 403.11005237321353ZM856.2431818762777 374.40932521228535L856.2431818762777 374.40932521228535L856.9790979573272 374.40932521228535Q879.0819568053985 378.4441754497633 879.0819568053985 395.801644395895L879.0819568053985 395.801644395895L879.0819568053985 399.0752021357356Q879.0819568053985 418.2597730761969 854.6190912146515 437.2667091005428L854.6190912146515 437.2667091005428L854.6190912146515 438.00262518159224Q894.2570539249696 473.453479154905 909.4321510445409 473.453479154905L909.4321510445409 473.453479154905Q912.1728040360354 475.45821606535003 912.1728040360354 478.3765039729599L912.1728040360354 478.3765039729599Q912.1728040360354 482.5889891265532 905.9555819719969 483.68017503983344L905.9555819719969 483.68017503983344Q890.7804848524258 483.68017503983344 849.315420147778 447.13813515324046L849.315420147778 447.13813515324046L841.4487310055254 442.92564999964713L840.9158262571791 442.92564999964713Q846.0164859913493 463.4044181860919 846.0164859913493 474.54466506818517L846.0164859913493 474.54466506818517Q846.0164859913493 479.2900549701247 840.1799101761296 481.29479188056973L840.1799101761296 481.29479188056973Q831.780316285531 481.29479188056973 829.5725680423825 440.18499700815266L829.5725680423825 440.18499700815266Q823.7359922271628 421.17806098380674 823.7359922271628 409.8601791855981L823.7359922271628 409.8601791855981L823.7359922271628 408.2107121073838Q823.7359922271628 391.5891592423016 831.0444002044815 391.5891592423016L831.0444002044815 391.5891592423016L834.5209692770254 393.41626123663127L835.6121551903057 393.41626123663127Q844.3670189131351 374.40932521228535 856.2431818762777 374.40932521228535ZM841.4487310055254 423.2081743108397L841.4487310055254 423.2081743108397L840.9158262571791 429.9583011232242Q857.8926489544922 429.9583011232242 868.3223561721238 401.81585512723007L868.3223561721238 401.81585512723007L868.3223561721238 395.06572831484556Q868.3223561721238 387.0214042564775 857.3597442061459 385.37193717826324L857.3597442061459 385.37193717826324L856.2431818762777 385.37193717826324Q844.7476651619538 385.37193717826324 841.4487310055254 423.2081743108397ZM951.2524855814195 374.40932521228535L951.2524855814195 374.40932521228535L951.988401662469 374.40932521228535Q974.09126051054 378.4441754497633 974.09126051054 395.801644395895L974.09126051054 395.801644395895L974.09126051054 399.0752021357356Q974.09126051054 418.2597730761969 949.6283949197932 437.2667091005428L949.6283949197932 437.2667091005428L949.6283949197932 438.00262518159224Q989.2663576301113 473.453479154905 1004.4414547496824 473.453479154905L1004.4414547496824 473.453479154905Q1007.1821077411771 475.45821606535003 1007.1821077411771 478.3765039729599L1007.1821077411771 478.3765039729599Q1007.1821077411771 482.5889891265532 1000.9648856771387 483.68017503983344L1000.9648856771387 483.68017503983344Q985.7897885575674 483.68017503983344 944.3247238529195 447.13813515324046L944.3247238529195 447.13813515324046L936.4580347106669 442.92564999964713L935.9251299623209 442.92564999964713Q941.0257896964911 463.4044181860919 941.0257896964911 474.54466506818517L941.0257896964911 474.54466506818517Q941.0257896964911 479.2900549701247 935.1892138812714 481.29479188056973L935.1892138812714 481.29479188056973Q926.7896199906725 481.29479188056973 924.5818717475242 440.18499700815266L924.5818717475242 440.18499700815266Q918.7452959323045 421.17806098380674 918.7452959323045 409.8601791855981L918.7452959323045 409.8601791855981L918.7452959323045 408.2107121073838Q918.7452959323045 391.5891592423016 926.0537039096232 391.5891592423016L926.0537039096232 391.5891592423016L929.5302729821669 393.41626123663127L930.6214588954472 393.41626123663127Q939.3763226182768 374.40932521228535 951.2524855814195 374.40932521228535ZM936.4580347106669 423.2081743108397L936.4580347106669 423.2081743108397L935.9251299623209 429.9583011232242Q952.9019526596337 429.9583011232242 963.3316598772656 401.81585512723007L963.3316598772656 401.81585512723007L963.3316598772656 395.06572831484556Q963.3316598772656 387.0214042564775 952.3690479112877 385.37193717826324L952.3690479112877 385.37193717826324L951.2524855814195 385.37193717826324Q939.7569688670953 385.37193717826324 936.4580347106669 423.2081743108397ZM1023.6260256901439 377.1499782037798L1023.6260256901439 377.1499782037798Q1027.9907693432647 377.1499782037798 1029.2849665892481 381.7177331896039L1029.2849665892481 381.7177331896039L1028.193780675968 392.5027102394664L1028.193780675968 395.97927931201036Q1032.761535661792 433.79014002799886 1033.8527215750723 454.8018129627898L1033.8527215750723 454.8018129627898Q1035.8574584855173 474.3670301520698 1038.0398303120778 474.3670301520698L1038.0398303120778 474.3670301520698Q1038.0398303120778 478.1988690568445 1031.644973331924 479.2900549701247L1031.644973331924 479.2900549701247Q1022.5094633602757 479.2900549701247 1022.5094633602757 442.392745251301L1022.5094633602757 442.392745251301L1017.4088036261055 394.8880933987301L1017.4088036261055 393.2386263205159Q1017.4088036261055 377.1499782037798 1023.6260256901439 377.1499782037798ZM1102.1914114463186 372.9628694667744L1102.1914114463186 372.9628694667744Q1105.4649691861594 372.9628694667744 1106.7591664321428 378.6218103658787L1106.7591664321428 378.6218103658787Q1106.7591664321428 381.89536810571934 1095.238273301231 387.75732033752695L1095.238273301231 387.75732033752695Q1080.9767271788244 400.1663880490158 1074.0489654503244 430.51658228815825L1074.0489654503244 430.51658228815825L1074.0489654503244 433.79014002799886Q1089.9346022343573 425.94882730233417 1096.8877403794452 424.2993602241199L1096.8877403794452 424.2993602241199Q1099.0701122060054 424.2993602241199 1102.1914114463186 428.13119912889454L1102.1914114463186 428.13119912889454L1102.1914114463186 431.6077682014385Q1102.1914114463186 433.6125051118835 1086.1027633295826 439.6520922598065L1086.1027633295826 439.6520922598065Q1074.0489654503244 446.22458415607565 1074.0489654503244 447.13813515324046L1074.0489654503244 447.13813515324046L1074.0489654503244 448.78760223145474Q1074.0489654503244 459.0142981163832 1087.1939492428628 466.50034100981713L1087.1939492428628 466.50034100981713L1093.4111713069012 467.5915269230974Q1099.4507584548242 467.5915269230974 1111.3269214179668 460.1054840296634L1111.3269214179668 460.1054840296634L1113.5092932445273 460.1054840296634Q1117.341132149302 461.93258602399305 1117.341132149302 465.40915509653695L1117.341132149302 465.40915509653695L1117.341132149302 466.50034100981713Q1106.0232503510933 478.3765039729599 1092.319985393621 478.3765039729599L1092.319985393621 478.3765039729599Q1072.754768204341 478.3765039729599 1063.822269565396 452.06115997129535L1063.822269565396 452.06115997129535L1052.3013764344842 454.44654313055906Q1043.9017825438852 453.15234588457554 1043.9017825438852 448.9652371475701Q1043.9017825438852 444.75275199397674 1048.8248073619402 442.92564999964713L1048.8248073619402 442.92564999964713L1053.0372925155336 443.66156608069656Q1062.5280723194126 440.9209130892021 1062.5280723194126 439.6520922598065L1062.5280723194126 439.6520922598065Q1062.5280723194126 408.5913583562025 1086.1027633295826 382.0983794384226L1086.1027633295826 382.0983794384226Q1097.9789262927252 372.9628694667744 1102.1914114463186 372.9628694667744ZM1209.4321479468338 376.6170734554337L1209.4321479468338 376.6170734554337Q1215.8270049269877 376.6170734554337 1215.8270049269877 398.8975672196202L1215.8270049269877 398.8975672196202L1216.9181908402677 427.3952830478451L1217.2988370890864 427.3952830478451L1246.5324689983609 416.07740124963647Q1250.8972126514816 378.79944528199405 1254.551416640141 378.79944528199405L1254.551416640141 378.79944528199405L1256.9367997994048 378.4441754497633Q1260.03272262313 378.4441754497633 1262.595740698509 383.36720026781825L1262.595740698509 383.36720026781825Q1256.2008837183553 414.78320400365294 1256.2008837183553 437.82499026547686L1256.2008837183553 437.82499026547686L1256.2008837183553 445.6663029911416Q1256.2008837183553 462.4908671889271 1264.2452077767232 477.6405878919104L1264.2452077767232 477.6405878919104Q1262.4181057823937 482.7666240426686 1258.4086319615035 482.7666240426686L1258.4086319615035 482.7666240426686Q1249.628391822086 482.7666240426686 1245.4159066684927 447.31577006935584L1245.4159066684927 447.31577006935584L1245.4159066684927 428.68948029382864L1244.3247207552124 428.68948029382864Q1216.9181908402677 438.35789501382305 1216.9181908402677 441.09854800531747L1216.9181908402677 441.09854800531747Q1216.9181908402677 484.59372603699825 1208.8738667818998 484.59372603699825L1208.8738667818998 484.59372603699825L1208.1633271174383 484.59372603699825Q1204.3061117960756 484.59372603699825 1203.2149258827953 478.1988690568445L1203.2149258827953 478.1988690568445Q1205.9555788742898 458.2783820353337 1205.9555788742898 447.31577006935584L1205.9555788742898 447.31577006935584L1197.911254815922 451.5282552229492L1196.2871641542954 451.88352505518Q1191.7194091684714 450.2340579769657 1191.7194091684714 446.22458415607565Q1191.7194091684714 442.18973391859765 1205.9555788742898 433.6125051118835L1205.9555788742898 433.6125051118835L1205.9555788742898 433.2572352796527Q1205.4226741259436 401.81585512723007 1203.595572131614 381.1848284412578L1203.595572131614 381.1848284412578Q1203.595572131614 377.1499782037798 1209.4321479468338 376.6170734554337ZM1313.5769616236237 396.15691422812574Q1313.5769616236237 369.8415702264612 1321.6212856819918 369.8415702264612Q1329.66560974036 369.8415702264612 1329.66560974036 399.63348330066964L1329.66560974036 399.63348330066964L1327.280226581096 426.4817320506803Q1327.280226581096 460.8414001107128 1336.4157365527442 479.46768988624007L1336.4157365527442 479.46768988624007L1336.4157365527442 480.2036059672895Q1336.4157365527442 483.8578099559488 1331.4927117346895 484.77136095311363L1331.4927117346895 484.77136095311363L1330.7567956536398 484.77136095311363Q1323.9812924246676 484.41609112088287 1318.8806326904971 459.0142981163832L1318.8806326904971 459.0142981163832L1318.1447166094479 459.0142981163832Q1308.6539368055687 487.5120139446081 1293.8341095182284 487.5120139446081Q1279.0396586474758 487.5120139446081 1274.8525499104703 463.5820531022073L1274.8525499104703 463.5820531022073L1274.2942687455363 452.7970760523448L1274.2942687455363 449.3205069798009L1277.0349217370306 407.6778073590377L1277.0349217370306 399.63348330066964Q1277.0349217370306 395.97927931201036 1281.2474068906242 393.9745424015653L1281.2474068906242 393.9745424015653L1282.8714975522505 393.9745424015653Q1287.9975337030087 393.9745424015653 1287.9975337030087 400.7246692139499L1287.9975337030087 400.7246692139499L1287.9975337030087 401.81585512723007L1285.0792457953987 450.6147042257844L1285.0792457953987 457.3648310381689Q1285.0792457953987 471.9816469928061 1292.0070075238987 476.7270368947456L1292.0070075238987 476.7270368947456L1295.3059416803274 476.7270368947456Q1304.6190865680908 471.0680959956413 1313.221691791393 438.35789501382305L1313.221691791393 438.35789501382305L1315.9623447828874 425.94882730233417L1313.5769616236237 396.15691422812574ZM1384.275658237546 369.8415702264612L1384.275658237546 369.8415702264612L1388.84341322337 368.39511448095027Q1395.0606352874086 368.39511448095027 1395.0606352874086 384.8390324299171L1395.0606352874086 384.8390324299171L1400.7195761865128 427.04001321561435L1401.455492267562 427.7759292966638L1422.467165202353 420.0868750705265Q1426.6796503559465 420.0868750705265 1427.034920188177 426.4817320506803L1427.034920188177 426.4817320506803Q1427.034920188177 431.22712195261977 1403.8408754268257 438.00262518159224L1403.8408754268257 438.00262518159224L1403.1049593457765 438.35789501382305L1403.1049593457765 439.0938110948724Q1403.1049593457765 442.92564999964713 1415.1587572250344 479.1124200540093L1415.1587572250344 479.1124200540093L1415.1587572250344 479.46768988624007Q1415.1587572250344 482.94425895878396 1409.4998163259302 485.3296421180477L1409.4998163259302 485.3296421180477Q1404.1961452590565 485.3296421180477 1402.5466781808423 472.71756307385556L1402.5466781808423 472.71756307385556Q1398.359569443837 463.5820531022073 1392.3199822959139 442.5703801674164L1392.3199822959139 442.5703801674164L1391.5840662148646 442.5703801674164Q1367.6541053724638 447.4934049854712 1367.6541053724638 450.96997405801517L1367.6541053724638 450.96997405801517Q1354.5091215799255 479.46768988624007 1347.7336183509528 479.46768988624007L1347.7336183509528 479.46768988624007Q1343.9017794461781 479.46768988624007 1343.1658633651289 474.54466506818517L1343.1658633651289 474.54466506818517Q1343.1658633651289 470.15454499847647 1352.859654501711 457.3648310381689L1352.859654501711 457.3648310381689L1355.777942409321 450.96997405801517L1351.2101874234966 450.96997405801517L1347.7336183509528 451.7058901390646Q1340.9834915385684 450.05642306085036 1340.9834915385684 444.75275199397674L1340.9834915385684 444.75275199397674Q1343.7241445300629 438.35789501382305 1349.0278155969365 438.35789501382305L1349.0278155969365 438.35789501382305L1353.5955705827603 440.18499700815266Q1363.822266467689 440.18499700815266 1363.822266467689 432.6989541147187L1363.822266467689 432.6989541147187Q1373.1354113554528 410.7737301827629 1384.275658237546 369.8415702264612ZM1385.9251253157602 403.11005237321353L1385.9251253157602 403.11005237321353L1375.1401482658976 435.6172420223285Q1390.1376104693534 432.6989541147187 1390.1376104693534 429.9583011232242L1390.1376104693534 429.9583011232242Q1387.3969574778591 403.11005237321353 1385.9251253157602 403.11005237321353ZM1446.3971260447538 377.5306244525985L1446.3971260447538 377.5306244525985Q1454.999731268056 380.27127744409296 1479.1073270265722 444.2198472456306L1479.1073270265722 444.2198472456306L1481.8479800180667 447.4934049854712L1481.8479800180667 437.2667091005428Q1481.8479800180667 396.5121840603565 1501.9461019556927 379.7129962791589L1501.9461019556927 379.7129962791589Q1506.513856941517 379.7129962791589 1507.6050428547971 385.9302183431973L1507.6050428547971 385.9302183431973Q1493.9017778973246 406.38361011305415 1493.9017778973246 418.9956891572463L1493.9017778973246 418.9956891572463Q1492.9882269001598 418.9956891572463 1492.8105919840443 430.51658228815825L1492.8105919840443 430.51658228815825L1492.8105919840443 440.18499700815266Q1492.8105919840443 452.7970760523448 1495.551244975539 476.19413214639945L1495.551244975539 476.19413214639945Q1493.9017778973246 480.7618871322236 1489.7146691603193 480.7618871322236Q1485.5021840067259 480.7618871322236 1477.8385061971765 463.5820531022073L1477.8385061971765 463.5820531022073Q1468.525361309413 448.78760223145474 1457.359738010732 418.64041932501556L1457.359738010732 418.64041932501556L1456.6491983462702 418.64041932501556L1456.6491983462702 419.73160523829574L1457.7403842595506 442.92564999964713Q1457.7403842595506 478.9347851378939 1444.037119302078 489.33911593893777L1444.037119302078 489.33911593893777L1439.4693643162539 489.8973971038718Q1433.8104234171497 489.8973971038718 1429.9532080957872 479.46768988624007L1429.9532080957872 479.46768988624007Q1431.2474053417704 473.80874898713574 1435.6375254114794 473.80874898713574L1435.6375254114794 473.80874898713574L1436.7287113247596 473.80874898713574L1440.205280397303 476.7270368947456L1440.7381851456496 476.7270368947456Q1447.1330421258033 468.1498080880314 1447.1330421258033 444.118341579279Q1447.1330421258033 420.0868750705265 1440.205280397303 383.1895653517028L1440.205280397303 383.1895653517028Q1440.205280397303 378.24116411706 1446.3971260447538 377.5306244525985ZM1565.717036841115 341.16621948212094L1565.717036841115 341.16621948212094Q1568.6353247487248 341.16621948212094 1571.0207079079885 346.82516038122526L1571.0207079079885 346.82516038122526Q1571.0207079079885 351.215280450934 1557.6727127827469 354.13356835854387L1557.6727127827469 354.13356835854387Q1540.8735250015495 363.44671324630747 1531.6365093635493 386.6661344242467Q1522.4248701421377 409.8601791855981 1522.4248701421377 432.5213191986033L1522.4248701421377 432.5213191986033Q1522.4248701421377 468.88572416908085 1545.7965498196043 479.2900549701247L1545.7965498196043 479.2900549701247L1551.658502051412 480.38124088340487Q1571.1983428241037 480.38124088340487 1579.4203017985872 446.22458415607565L1579.4203017985872 446.22458415607565L1580.1562178796369 438.73854126264166Q1580.1562178796369 424.1217253080045 1570.2847918269392 414.2502992553068L1570.2847918269392 414.2502992553068L1569.193605913659 414.2502992553068Q1565.3617670088843 418.64041932501556 1553.8408738779722 445.13339824279547L1553.8408738779722 445.13339824279547L1549.8314000570824 447.87405123428994Q1544.705363906324 447.87405123428994 1543.9694478252748 441.6568291702515L1543.9694478252748 441.6568291702515Q1561.3269167714063 400.54703429783444 1567.5441388354445 400.54703429783444L1567.5441388354445 400.54703429783444L1568.6353247487248 400.54703429783444Q1590.9411949294993 413.5143831742574 1590.9411949294993 438.73854126264166L1590.9411949294993 438.73854126264166Q1590.9411949294993 467.2362570908666 1567.5441388354445 486.24319311521253L1567.5441388354445 486.24319311521253Q1563.71229993067 489.51675085505315 1552.0137718836424 491.1662179332674L1552.0137718836424 491.1662179332674Q1529.9109130355714 491.1662179332674 1515.4717319970498 459.1919330324986L1515.4717319970498 459.1919330324986Q1511.639893092275 445.4886680750262 1511.639893092275 434.1707862768176L1511.639893092275 434.1707862768176L1511.639893092275 431.4301332853231Q1511.639893092275 392.3250753233511 1536.6610398479559 357.61013743108776L1536.6610398479559 357.61013743108776Q1552.9273228808074 341.16621948212094 1565.717036841115 341.16621948212094Z " fill="#65558f" transform="matrix(0.5499889268179936,0,0,0.5499889268179936,0,71.11320280360573)"/></g></svg>